<mxfile host="app.diagrams.net" agent="Mozilla/5.0 (Windows NT 10.0; Win64; x64) AppleWebKit/537.36 (KHTML, like Gecko) Chrome/139.0.0.0 Safari/537.36" version="28.2.3">
  <diagram name="Trang-1" id="YjbJ63JTrYYZCRZtJ5xC">
    <mxGraphModel dx="2251" dy="804" grid="1" gridSize="10" guides="1" tooltips="1" connect="1" arrows="1" fold="1" page="1" pageScale="1" pageWidth="827" pageHeight="1169" math="0" shadow="0">
      <root>
        <mxCell id="0" />
        <mxCell id="1" parent="0" />
        <mxCell id="6gCZVRVQFLJtjT2mg8cL-6" value="Thuộc" style="shape=rhombus;perimeter=rhombusPerimeter;whiteSpace=wrap;html=1;align=center;" vertex="1" parent="1">
          <mxGeometry x="60" y="320" width="120" height="60" as="geometry" />
        </mxCell>
        <mxCell id="6gCZVRVQFLJtjT2mg8cL-9" value="" style="endArrow=none;html=1;rounded=0;exitX=0.5;exitY=0;exitDx=0;exitDy=0;entryX=0;entryY=1;entryDx=0;entryDy=0;" edge="1" parent="1" source="6gCZVRVQFLJtjT2mg8cL-109" target="6gCZVRVQFLJtjT2mg8cL-113">
          <mxGeometry relative="1" as="geometry">
            <mxPoint x="510" y="330" as="sourcePoint" />
            <mxPoint x="620" y="270" as="targetPoint" />
          </mxGeometry>
        </mxCell>
        <mxCell id="6gCZVRVQFLJtjT2mg8cL-10" value="" style="endArrow=none;html=1;rounded=0;exitX=0.41;exitY=-0.05;exitDx=0;exitDy=0;entryX=0.5;entryY=1;entryDx=0;entryDy=0;exitPerimeter=0;" edge="1" parent="1" source="6gCZVRVQFLJtjT2mg8cL-109" target="6gCZVRVQFLJtjT2mg8cL-111">
          <mxGeometry relative="1" as="geometry">
            <mxPoint x="510" y="330" as="sourcePoint" />
            <mxPoint x="581.4000000000001" y="240.79999999999995" as="targetPoint" />
          </mxGeometry>
        </mxCell>
        <mxCell id="6gCZVRVQFLJtjT2mg8cL-11" value="" style="endArrow=none;html=1;rounded=0;exitX=0.399;exitY=-0.05;exitDx=0;exitDy=0;exitPerimeter=0;" edge="1" parent="1" source="6gCZVRVQFLJtjT2mg8cL-109" target="6gCZVRVQFLJtjT2mg8cL-112">
          <mxGeometry relative="1" as="geometry">
            <mxPoint x="510" y="330" as="sourcePoint" />
            <mxPoint x="452.4264068712023" y="228.28427124746827" as="targetPoint" />
          </mxGeometry>
        </mxCell>
        <mxCell id="6gCZVRVQFLJtjT2mg8cL-12" value="" style="endArrow=none;html=1;rounded=0;exitX=0.364;exitY=-0.107;exitDx=0;exitDy=0;entryX=1;entryY=1;entryDx=0;entryDy=0;exitPerimeter=0;" edge="1" parent="1" source="6gCZVRVQFLJtjT2mg8cL-109" target="6gCZVRVQFLJtjT2mg8cL-110">
          <mxGeometry relative="1" as="geometry">
            <mxPoint x="510" y="330" as="sourcePoint" />
            <mxPoint x="360" y="240" as="targetPoint" />
          </mxGeometry>
        </mxCell>
        <mxCell id="6gCZVRVQFLJtjT2mg8cL-13" value="" style="endArrow=none;html=1;rounded=0;entryX=0.5;entryY=1;entryDx=0;entryDy=0;exitX=0.5;exitY=0;exitDx=0;exitDy=0;" edge="1" parent="1" source="6gCZVRVQFLJtjT2mg8cL-103" target="6gCZVRVQFLJtjT2mg8cL-105">
          <mxGeometry relative="1" as="geometry">
            <mxPoint x="-127" y="260" as="sourcePoint" />
            <mxPoint x="-59.960000000000036" y="130" as="targetPoint" />
          </mxGeometry>
        </mxCell>
        <mxCell id="6gCZVRVQFLJtjT2mg8cL-14" value="" style="endArrow=none;html=1;rounded=0;exitX=0.25;exitY=0;exitDx=0;exitDy=0;entryX=0.5;entryY=1;entryDx=0;entryDy=0;" edge="1" parent="1" source="6gCZVRVQFLJtjT2mg8cL-103" target="6gCZVRVQFLJtjT2mg8cL-104">
          <mxGeometry relative="1" as="geometry">
            <mxPoint x="-155.02000000000044" y="250" as="sourcePoint" />
            <mxPoint x="-214.55606736954746" y="166.22526001623783" as="targetPoint" />
          </mxGeometry>
        </mxCell>
        <mxCell id="6gCZVRVQFLJtjT2mg8cL-18" value="" style="endArrow=none;html=1;rounded=0;entryX=0;entryY=0.75;entryDx=0;entryDy=0;exitX=1;exitY=0.5;exitDx=0;exitDy=0;" edge="1" parent="1" source="6gCZVRVQFLJtjT2mg8cL-6" target="6gCZVRVQFLJtjT2mg8cL-109">
          <mxGeometry relative="1" as="geometry">
            <mxPoint x="280" y="340" as="sourcePoint" />
            <mxPoint x="420" y="370" as="targetPoint" />
          </mxGeometry>
        </mxCell>
        <mxCell id="6gCZVRVQFLJtjT2mg8cL-19" value="N" style="resizable=0;html=1;whiteSpace=wrap;align=right;verticalAlign=bottom;" connectable="0" vertex="1" parent="6gCZVRVQFLJtjT2mg8cL-18">
          <mxGeometry x="1" relative="1" as="geometry" />
        </mxCell>
        <mxCell id="6gCZVRVQFLJtjT2mg8cL-23" value="Đươc trả trong" style="shape=rhombus;perimeter=rhombusPerimeter;whiteSpace=wrap;html=1;align=center;" vertex="1" parent="1">
          <mxGeometry x="-140" y="370" width="120" height="60" as="geometry" />
        </mxCell>
        <mxCell id="6gCZVRVQFLJtjT2mg8cL-24" value="" style="endArrow=none;html=1;rounded=0;entryX=0;entryY=1;entryDx=0;entryDy=0;exitX=1;exitY=0.5;exitDx=0;exitDy=0;" edge="1" parent="1" source="6gCZVRVQFLJtjT2mg8cL-23" target="6gCZVRVQFLJtjT2mg8cL-109">
          <mxGeometry relative="1" as="geometry">
            <mxPoint x="-330" y="460" as="sourcePoint" />
            <mxPoint x="420" y="410" as="targetPoint" />
          </mxGeometry>
        </mxCell>
        <mxCell id="6gCZVRVQFLJtjT2mg8cL-25" value="1" style="resizable=0;html=1;whiteSpace=wrap;align=right;verticalAlign=bottom;" connectable="0" vertex="1" parent="6gCZVRVQFLJtjT2mg8cL-24">
          <mxGeometry x="1" relative="1" as="geometry">
            <mxPoint y="20" as="offset" />
          </mxGeometry>
        </mxCell>
        <mxCell id="6gCZVRVQFLJtjT2mg8cL-26" value="" style="endArrow=none;html=1;rounded=0;exitX=0;exitY=0.5;exitDx=0;exitDy=0;entryX=1;entryY=0.5;entryDx=0;entryDy=0;" edge="1" parent="1" source="6gCZVRVQFLJtjT2mg8cL-23" target="6gCZVRVQFLJtjT2mg8cL-85">
          <mxGeometry relative="1" as="geometry">
            <mxPoint x="-330" y="460" as="sourcePoint" />
            <mxPoint x="-330.0000000000002" y="440" as="targetPoint" />
          </mxGeometry>
        </mxCell>
        <mxCell id="6gCZVRVQFLJtjT2mg8cL-27" value="N" style="resizable=0;html=1;whiteSpace=wrap;align=right;verticalAlign=bottom;" connectable="0" vertex="1" parent="6gCZVRVQFLJtjT2mg8cL-26">
          <mxGeometry x="1" relative="1" as="geometry" />
        </mxCell>
        <mxCell id="6gCZVRVQFLJtjT2mg8cL-32" value="" style="endArrow=none;html=1;rounded=0;exitX=1;exitY=0.5;exitDx=0;exitDy=0;entryX=0;entryY=0.75;entryDx=0;entryDy=0;" edge="1" parent="1" source="6gCZVRVQFLJtjT2mg8cL-81" target="6gCZVRVQFLJtjT2mg8cL-85">
          <mxGeometry relative="1" as="geometry">
            <mxPoint x="-567.5735931288123" y="541.7157287525415" as="sourcePoint" />
            <mxPoint x="-510.0000000000002" y="480" as="targetPoint" />
            <Array as="points">
              <mxPoint x="-550" y="520" />
            </Array>
          </mxGeometry>
        </mxCell>
        <mxCell id="6gCZVRVQFLJtjT2mg8cL-33" value="" style="endArrow=none;html=1;rounded=0;exitX=1;exitY=0.5;exitDx=0;exitDy=0;entryX=0;entryY=0.5;entryDx=0;entryDy=0;" edge="1" parent="1" source="6gCZVRVQFLJtjT2mg8cL-82" target="6gCZVRVQFLJtjT2mg8cL-85">
          <mxGeometry relative="1" as="geometry">
            <mxPoint x="-570.0000000000002" y="450" as="sourcePoint" />
            <mxPoint x="-510.0000000000002" y="440" as="targetPoint" />
            <Array as="points">
              <mxPoint x="-550" y="440" />
            </Array>
          </mxGeometry>
        </mxCell>
        <mxCell id="6gCZVRVQFLJtjT2mg8cL-34" value="" style="endArrow=none;html=1;rounded=0;exitX=1;exitY=0.5;exitDx=0;exitDy=0;entryX=0;entryY=0;entryDx=0;entryDy=0;" edge="1" parent="1" source="6gCZVRVQFLJtjT2mg8cL-83" target="6gCZVRVQFLJtjT2mg8cL-85">
          <mxGeometry relative="1" as="geometry">
            <mxPoint x="-520.0000000000002" y="320" as="sourcePoint" />
            <mxPoint x="-510.0000000000002" y="400" as="targetPoint" />
          </mxGeometry>
        </mxCell>
        <mxCell id="6gCZVRVQFLJtjT2mg8cL-36" value="" style="endArrow=none;html=1;rounded=0;entryX=0.25;entryY=0;entryDx=0;entryDy=0;exitX=1;exitY=0.5;exitDx=0;exitDy=0;" edge="1" parent="1" source="6gCZVRVQFLJtjT2mg8cL-80" target="6gCZVRVQFLJtjT2mg8cL-85">
          <mxGeometry relative="1" as="geometry">
            <mxPoint x="-498.0947482709021" y="267.238927939467" as="sourcePoint" />
            <mxPoint x="-420.0000000000002" y="400" as="targetPoint" />
          </mxGeometry>
        </mxCell>
        <mxCell id="6gCZVRVQFLJtjT2mg8cL-43" value="" style="endArrow=none;html=1;rounded=0;exitX=1;exitY=1;exitDx=0;exitDy=0;entryX=0.5;entryY=0;entryDx=0;entryDy=0;" edge="1" parent="1" source="6gCZVRVQFLJtjT2mg8cL-94" target="6gCZVRVQFLJtjT2mg8cL-98">
          <mxGeometry relative="1" as="geometry">
            <mxPoint x="-69.2800000000002" y="527.6800000000001" as="sourcePoint" />
            <mxPoint x="50" y="680" as="targetPoint" />
          </mxGeometry>
        </mxCell>
        <mxCell id="6gCZVRVQFLJtjT2mg8cL-44" value="" style="endArrow=none;html=1;rounded=0;exitX=1;exitY=1;exitDx=0;exitDy=0;entryX=0.381;entryY=0.057;entryDx=0;entryDy=0;entryPerimeter=0;" edge="1" parent="1" source="6gCZVRVQFLJtjT2mg8cL-93" target="6gCZVRVQFLJtjT2mg8cL-98">
          <mxGeometry relative="1" as="geometry">
            <mxPoint x="-87.57359312880772" y="613.2842712474617" as="sourcePoint" />
            <mxPoint x="60" y="670" as="targetPoint" />
          </mxGeometry>
        </mxCell>
        <mxCell id="6gCZVRVQFLJtjT2mg8cL-45" value="" style="endArrow=none;html=1;rounded=0;exitX=0.5;exitY=1;exitDx=0;exitDy=0;entryX=0.5;entryY=0;entryDx=0;entryDy=0;" edge="1" parent="1" source="6gCZVRVQFLJtjT2mg8cL-95" target="6gCZVRVQFLJtjT2mg8cL-98">
          <mxGeometry relative="1" as="geometry">
            <mxPoint x="26.440000000000055" y="528.8800000000001" as="sourcePoint" />
            <mxPoint x="50" y="690" as="targetPoint" />
          </mxGeometry>
        </mxCell>
        <mxCell id="6gCZVRVQFLJtjT2mg8cL-46" value="" style="endArrow=none;html=1;rounded=0;exitX=0.5;exitY=0;exitDx=0;exitDy=0;entryX=0.401;entryY=0.964;entryDx=0;entryDy=0;entryPerimeter=0;" edge="1" parent="1" source="6gCZVRVQFLJtjT2mg8cL-98" target="6gCZVRVQFLJtjT2mg8cL-96">
          <mxGeometry relative="1" as="geometry">
            <mxPoint x="60" y="670" as="sourcePoint" />
            <mxPoint x="137.57359312879726" y="558.2842712474683" as="targetPoint" />
          </mxGeometry>
        </mxCell>
        <mxCell id="6gCZVRVQFLJtjT2mg8cL-47" value="Được trả bằng" style="shape=rhombus;perimeter=rhombusPerimeter;whiteSpace=wrap;html=1;align=center;" vertex="1" parent="1">
          <mxGeometry x="-440" y="605" width="120" height="60" as="geometry" />
        </mxCell>
        <mxCell id="6gCZVRVQFLJtjT2mg8cL-48" value="" style="endArrow=none;html=1;rounded=0;exitX=0.5;exitY=0;exitDx=0;exitDy=0;entryX=0.25;entryY=1;entryDx=0;entryDy=0;" edge="1" parent="1" source="6gCZVRVQFLJtjT2mg8cL-47" target="6gCZVRVQFLJtjT2mg8cL-85">
          <mxGeometry relative="1" as="geometry">
            <mxPoint x="-60" y="440" as="sourcePoint" />
            <mxPoint x="-420.0000000000002" y="480" as="targetPoint" />
          </mxGeometry>
        </mxCell>
        <mxCell id="6gCZVRVQFLJtjT2mg8cL-49" value="N" style="resizable=0;html=1;whiteSpace=wrap;align=right;verticalAlign=bottom;" connectable="0" vertex="1" parent="6gCZVRVQFLJtjT2mg8cL-48">
          <mxGeometry x="1" relative="1" as="geometry" />
        </mxCell>
        <mxCell id="6gCZVRVQFLJtjT2mg8cL-51" value="" style="endArrow=none;html=1;rounded=0;exitX=1;exitY=0.5;exitDx=0;exitDy=0;entryX=0;entryY=0.5;entryDx=0;entryDy=0;" edge="1" parent="1" source="6gCZVRVQFLJtjT2mg8cL-47" target="6gCZVRVQFLJtjT2mg8cL-98">
          <mxGeometry relative="1" as="geometry">
            <mxPoint x="-60" y="440" as="sourcePoint" />
            <mxPoint x="-10" y="710" as="targetPoint" />
          </mxGeometry>
        </mxCell>
        <mxCell id="6gCZVRVQFLJtjT2mg8cL-52" value="1" style="resizable=0;html=1;whiteSpace=wrap;align=right;verticalAlign=bottom;" connectable="0" vertex="1" parent="6gCZVRVQFLJtjT2mg8cL-51">
          <mxGeometry x="1" relative="1" as="geometry" />
        </mxCell>
        <mxCell id="6gCZVRVQFLJtjT2mg8cL-54" value="Được mượn trong" style="shape=rhombus;perimeter=rhombusPerimeter;whiteSpace=wrap;html=1;align=center;" vertex="1" parent="1">
          <mxGeometry x="200" y="520" width="120" height="60" as="geometry" />
        </mxCell>
        <mxCell id="6gCZVRVQFLJtjT2mg8cL-61" value="" style="endArrow=none;html=1;rounded=0;exitX=1;exitY=0.25;exitDx=0;exitDy=0;entryX=0;entryY=0.5;entryDx=0;entryDy=0;" edge="1" parent="1" source="6gCZVRVQFLJtjT2mg8cL-116" target="6gCZVRVQFLJtjT2mg8cL-117">
          <mxGeometry relative="1" as="geometry">
            <mxPoint x="890" y="730" as="sourcePoint" />
            <mxPoint x="990" y="650" as="targetPoint" />
          </mxGeometry>
        </mxCell>
        <mxCell id="6gCZVRVQFLJtjT2mg8cL-62" value="" style="endArrow=none;html=1;rounded=0;exitX=0.5;exitY=1;exitDx=0;exitDy=0;entryX=0;entryY=0.5;entryDx=0;entryDy=0;" edge="1" parent="1" source="6gCZVRVQFLJtjT2mg8cL-116" target="6gCZVRVQFLJtjT2mg8cL-118">
          <mxGeometry relative="1" as="geometry">
            <mxPoint x="890" y="750" as="sourcePoint" />
            <mxPoint x="980" y="800" as="targetPoint" />
          </mxGeometry>
        </mxCell>
        <mxCell id="6gCZVRVQFLJtjT2mg8cL-64" value="Lập" style="shape=rhombus;perimeter=rhombusPerimeter;whiteSpace=wrap;html=1;align=center;" vertex="1" parent="1">
          <mxGeometry x="380" y="680" width="120" height="60" as="geometry" />
        </mxCell>
        <mxCell id="6gCZVRVQFLJtjT2mg8cL-65" value="" style="endArrow=none;html=1;rounded=0;entryX=0;entryY=0.5;entryDx=0;entryDy=0;exitX=1;exitY=0.5;exitDx=0;exitDy=0;" edge="1" parent="1" source="6gCZVRVQFLJtjT2mg8cL-64" target="6gCZVRVQFLJtjT2mg8cL-116">
          <mxGeometry relative="1" as="geometry">
            <mxPoint x="330" y="800" as="sourcePoint" />
            <mxPoint x="710" y="770" as="targetPoint" />
          </mxGeometry>
        </mxCell>
        <mxCell id="6gCZVRVQFLJtjT2mg8cL-66" value="1" style="resizable=0;html=1;whiteSpace=wrap;align=right;verticalAlign=bottom;" connectable="0" vertex="1" parent="6gCZVRVQFLJtjT2mg8cL-65">
          <mxGeometry x="1" relative="1" as="geometry">
            <mxPoint x="-20" y="-10" as="offset" />
          </mxGeometry>
        </mxCell>
        <mxCell id="6gCZVRVQFLJtjT2mg8cL-70" value="IDPhieuNhap" style="ellipse;whiteSpace=wrap;html=1;align=center;fontStyle=4;" vertex="1" parent="1">
          <mxGeometry x="30" y="720" width="100" height="40" as="geometry" />
        </mxCell>
        <mxCell id="6gCZVRVQFLJtjT2mg8cL-73" value="NgayNhap" style="ellipse;whiteSpace=wrap;html=1;align=center;" vertex="1" parent="1">
          <mxGeometry x="-80" y="710" width="100" height="40" as="geometry" />
        </mxCell>
        <mxCell id="6gCZVRVQFLJtjT2mg8cL-74" value="" style="endArrow=none;html=1;rounded=0;entryX=0.5;entryY=1;entryDx=0;entryDy=0;exitX=0.5;exitY=0;exitDx=0;exitDy=0;" edge="1" parent="1" source="6gCZVRVQFLJtjT2mg8cL-76" target="6gCZVRVQFLJtjT2mg8cL-73">
          <mxGeometry relative="1" as="geometry">
            <mxPoint x="80" y="850" as="sourcePoint" />
            <mxPoint x="-20" y="810" as="targetPoint" />
          </mxGeometry>
        </mxCell>
        <mxCell id="6gCZVRVQFLJtjT2mg8cL-75" value="" style="endArrow=none;html=1;rounded=0;entryX=0.401;entryY=0.943;entryDx=0;entryDy=0;entryPerimeter=0;exitX=0.5;exitY=0;exitDx=0;exitDy=0;" edge="1" parent="1" source="6gCZVRVQFLJtjT2mg8cL-76" target="6gCZVRVQFLJtjT2mg8cL-70">
          <mxGeometry relative="1" as="geometry">
            <mxPoint x="80" y="850" as="sourcePoint" />
            <mxPoint x="-20" y="810" as="targetPoint" />
          </mxGeometry>
        </mxCell>
        <mxCell id="6gCZVRVQFLJtjT2mg8cL-76" value="PHIEUNHAP" style="whiteSpace=wrap;html=1;align=center;" vertex="1" parent="1">
          <mxGeometry x="-40" y="780" width="100" height="40" as="geometry" />
        </mxCell>
        <mxCell id="6gCZVRVQFLJtjT2mg8cL-80" value="&lt;u&gt;IDPhieuTra&lt;/u&gt;" style="ellipse;whiteSpace=wrap;html=1;align=center;fontStyle=4;" vertex="1" parent="1">
          <mxGeometry x="-580" y="300" width="100" height="40" as="geometry" />
        </mxCell>
        <mxCell id="6gCZVRVQFLJtjT2mg8cL-81" value="SoLuong" style="ellipse;whiteSpace=wrap;html=1;align=center;" vertex="1" parent="1">
          <mxGeometry x="-680" y="510" width="100" height="40" as="geometry" />
        </mxCell>
        <mxCell id="6gCZVRVQFLJtjT2mg8cL-82" value="NgayTra" style="ellipse;whiteSpace=wrap;html=1;align=center;" vertex="1" parent="1">
          <mxGeometry x="-670" y="413" width="100" height="40" as="geometry" />
        </mxCell>
        <mxCell id="6gCZVRVQFLJtjT2mg8cL-83" value="PhiPhat" style="ellipse;whiteSpace=wrap;html=1;align=center;" vertex="1" parent="1">
          <mxGeometry x="-690" y="330" width="100" height="40" as="geometry" />
        </mxCell>
        <mxCell id="6gCZVRVQFLJtjT2mg8cL-85" value="PHIEUTRA" style="whiteSpace=wrap;html=1;align=center;" vertex="1" parent="1">
          <mxGeometry x="-450" y="420" width="100" height="40" as="geometry" />
        </mxCell>
        <mxCell id="6gCZVRVQFLJtjT2mg8cL-86" value="&lt;div&gt;&lt;br&gt;&lt;/div&gt;N&lt;div&gt;&lt;br&gt;&lt;/div&gt;" style="text;html=1;align=center;verticalAlign=middle;resizable=0;points=[];autosize=1;strokeColor=none;fillColor=none;" vertex="1" parent="1">
          <mxGeometry x="-365" y="403" width="30" height="60" as="geometry" />
        </mxCell>
        <mxCell id="6gCZVRVQFLJtjT2mg8cL-87" value="N" style="text;html=1;align=center;verticalAlign=middle;resizable=0;points=[];autosize=1;strokeColor=none;fillColor=none;" vertex="1" parent="1">
          <mxGeometry x="-445" y="458" width="30" height="30" as="geometry" />
        </mxCell>
        <mxCell id="6gCZVRVQFLJtjT2mg8cL-93" value="SoLuong" style="ellipse;whiteSpace=wrap;html=1;align=center;" vertex="1" parent="1">
          <mxGeometry x="-210" y="565" width="100" height="40" as="geometry" />
        </mxCell>
        <mxCell id="6gCZVRVQFLJtjT2mg8cL-94" value="&lt;u&gt;IDPhieuMuon&lt;/u&gt;" style="ellipse;whiteSpace=wrap;html=1;align=center;fontStyle=4;" vertex="1" parent="1">
          <mxGeometry x="-170" y="488" width="100" height="40" as="geometry" />
        </mxCell>
        <mxCell id="6gCZVRVQFLJtjT2mg8cL-95" value="NgayTra" style="ellipse;whiteSpace=wrap;html=1;align=center;" vertex="1" parent="1">
          <mxGeometry x="-50" y="500" width="100" height="40" as="geometry" />
        </mxCell>
        <mxCell id="6gCZVRVQFLJtjT2mg8cL-96" value="NgayMuon" style="ellipse;whiteSpace=wrap;html=1;align=center;" vertex="1" parent="1">
          <mxGeometry x="60" y="520" width="100" height="40" as="geometry" />
        </mxCell>
        <mxCell id="6gCZVRVQFLJtjT2mg8cL-98" value="PHIEUMUON" style="whiteSpace=wrap;html=1;align=center;" vertex="1" parent="1">
          <mxGeometry x="-50" y="605" width="100" height="40" as="geometry" />
        </mxCell>
        <mxCell id="6gCZVRVQFLJtjT2mg8cL-99" value="" style="endArrow=none;html=1;rounded=0;entryX=1;entryY=0;entryDx=0;entryDy=0;exitX=0;exitY=0.5;exitDx=0;exitDy=0;" edge="1" parent="1" source="6gCZVRVQFLJtjT2mg8cL-54" target="6gCZVRVQFLJtjT2mg8cL-98">
          <mxGeometry relative="1" as="geometry">
            <mxPoint x="-80" y="550" as="sourcePoint" />
            <mxPoint x="80" y="550" as="targetPoint" />
          </mxGeometry>
        </mxCell>
        <mxCell id="6gCZVRVQFLJtjT2mg8cL-100" value="N" style="resizable=0;html=1;whiteSpace=wrap;align=right;verticalAlign=bottom;" connectable="0" vertex="1" parent="6gCZVRVQFLJtjT2mg8cL-99">
          <mxGeometry x="1" relative="1" as="geometry" />
        </mxCell>
        <mxCell id="6gCZVRVQFLJtjT2mg8cL-101" value="" style="endArrow=none;html=1;rounded=0;entryX=1;entryY=1;entryDx=0;entryDy=0;" edge="1" parent="1" source="6gCZVRVQFLJtjT2mg8cL-64" target="6gCZVRVQFLJtjT2mg8cL-98">
          <mxGeometry relative="1" as="geometry">
            <mxPoint x="-80" y="550" as="sourcePoint" />
            <mxPoint x="80" y="550" as="targetPoint" />
          </mxGeometry>
        </mxCell>
        <mxCell id="6gCZVRVQFLJtjT2mg8cL-102" value="N" style="resizable=0;html=1;whiteSpace=wrap;align=right;verticalAlign=bottom;" connectable="0" vertex="1" parent="6gCZVRVQFLJtjT2mg8cL-101">
          <mxGeometry x="1" relative="1" as="geometry" />
        </mxCell>
        <mxCell id="6gCZVRVQFLJtjT2mg8cL-103" value="THELOAI" style="whiteSpace=wrap;html=1;align=center;" vertex="1" parent="1">
          <mxGeometry x="-170" y="270" width="100" height="40" as="geometry" />
        </mxCell>
        <mxCell id="6gCZVRVQFLJtjT2mg8cL-104" value="&lt;u&gt;IDTheLoai&lt;/u&gt;" style="ellipse;whiteSpace=wrap;html=1;align=center;fontStyle=4;" vertex="1" parent="1">
          <mxGeometry x="-270" y="190" width="100" height="40" as="geometry" />
        </mxCell>
        <mxCell id="6gCZVRVQFLJtjT2mg8cL-105" value="TenTL" style="ellipse;whiteSpace=wrap;html=1;align=center;" vertex="1" parent="1">
          <mxGeometry x="-170" y="140" width="100" height="40" as="geometry" />
        </mxCell>
        <mxCell id="6gCZVRVQFLJtjT2mg8cL-107" value="" style="endArrow=none;html=1;rounded=0;entryX=1;entryY=0.5;entryDx=0;entryDy=0;exitX=0;exitY=0.5;exitDx=0;exitDy=0;" edge="1" parent="1" source="6gCZVRVQFLJtjT2mg8cL-6" target="6gCZVRVQFLJtjT2mg8cL-103">
          <mxGeometry relative="1" as="geometry">
            <mxPoint x="100" y="320" as="sourcePoint" />
            <mxPoint x="280" y="400" as="targetPoint" />
          </mxGeometry>
        </mxCell>
        <mxCell id="6gCZVRVQFLJtjT2mg8cL-108" value="1" style="resizable=0;html=1;whiteSpace=wrap;align=right;verticalAlign=bottom;" connectable="0" vertex="1" parent="6gCZVRVQFLJtjT2mg8cL-107">
          <mxGeometry x="1" relative="1" as="geometry" />
        </mxCell>
        <mxCell id="6gCZVRVQFLJtjT2mg8cL-109" value="SACH" style="whiteSpace=wrap;html=1;align=center;" vertex="1" parent="1">
          <mxGeometry x="314" y="380" width="100" height="40" as="geometry" />
        </mxCell>
        <mxCell id="6gCZVRVQFLJtjT2mg8cL-110" value="NSX" style="ellipse;whiteSpace=wrap;html=1;align=center;" vertex="1" parent="1">
          <mxGeometry x="250" y="240" width="100" height="40" as="geometry" />
        </mxCell>
        <mxCell id="6gCZVRVQFLJtjT2mg8cL-111" value="&lt;u&gt;IDSach&lt;/u&gt;" style="ellipse;whiteSpace=wrap;html=1;align=center;fontStyle=4;" vertex="1" parent="1">
          <mxGeometry x="480" y="220" width="100" height="40" as="geometry" />
        </mxCell>
        <mxCell id="6gCZVRVQFLJtjT2mg8cL-112" value="TenSach" style="ellipse;whiteSpace=wrap;html=1;align=center;" vertex="1" parent="1">
          <mxGeometry x="364" y="210" width="100" height="40" as="geometry" />
        </mxCell>
        <mxCell id="6gCZVRVQFLJtjT2mg8cL-113" value="SoLuong" style="ellipse;whiteSpace=wrap;html=1;align=center;" vertex="1" parent="1">
          <mxGeometry x="500" y="300" width="100" height="40" as="geometry" />
        </mxCell>
        <mxCell id="6gCZVRVQFLJtjT2mg8cL-114" value="" style="endArrow=none;html=1;rounded=0;entryX=0.5;entryY=1;entryDx=0;entryDy=0;exitX=1;exitY=0.5;exitDx=0;exitDy=0;" edge="1" parent="1" source="6gCZVRVQFLJtjT2mg8cL-54" target="6gCZVRVQFLJtjT2mg8cL-109">
          <mxGeometry relative="1" as="geometry">
            <mxPoint x="120" y="550" as="sourcePoint" />
            <mxPoint x="280" y="550" as="targetPoint" />
          </mxGeometry>
        </mxCell>
        <mxCell id="6gCZVRVQFLJtjT2mg8cL-115" value="1" style="resizable=0;html=1;whiteSpace=wrap;align=right;verticalAlign=bottom;" connectable="0" vertex="1" parent="6gCZVRVQFLJtjT2mg8cL-114">
          <mxGeometry x="1" relative="1" as="geometry">
            <mxPoint x="10" y="20" as="offset" />
          </mxGeometry>
        </mxCell>
        <mxCell id="6gCZVRVQFLJtjT2mg8cL-116" value="NHANVIEN" style="whiteSpace=wrap;html=1;align=center;" vertex="1" parent="1">
          <mxGeometry x="580" y="670" width="100" height="40" as="geometry" />
        </mxCell>
        <mxCell id="6gCZVRVQFLJtjT2mg8cL-117" value="&lt;u&gt;IDSach&lt;/u&gt;" style="ellipse;whiteSpace=wrap;html=1;align=center;fontStyle=4;" vertex="1" parent="1">
          <mxGeometry x="710" y="600" width="100" height="40" as="geometry" />
        </mxCell>
        <mxCell id="6gCZVRVQFLJtjT2mg8cL-118" value="TenNV" style="ellipse;whiteSpace=wrap;html=1;align=center;" vertex="1" parent="1">
          <mxGeometry x="560" y="750" width="100" height="40" as="geometry" />
        </mxCell>
        <mxCell id="6gCZVRVQFLJtjT2mg8cL-121" value="Thực Hiện" style="shape=rhombus;perimeter=rhombusPerimeter;whiteSpace=wrap;html=1;align=center;" vertex="1" parent="1">
          <mxGeometry x="390" y="760" width="120" height="60" as="geometry" />
        </mxCell>
        <mxCell id="6gCZVRVQFLJtjT2mg8cL-122" value="" style="endArrow=none;html=1;rounded=0;entryX=0;entryY=1;entryDx=0;entryDy=0;exitX=1;exitY=0.5;exitDx=0;exitDy=0;" edge="1" parent="1" source="6gCZVRVQFLJtjT2mg8cL-121" target="6gCZVRVQFLJtjT2mg8cL-116">
          <mxGeometry relative="1" as="geometry">
            <mxPoint x="250" y="690" as="sourcePoint" />
            <mxPoint x="410" y="690" as="targetPoint" />
          </mxGeometry>
        </mxCell>
        <mxCell id="6gCZVRVQFLJtjT2mg8cL-123" value="1" style="resizable=0;html=1;whiteSpace=wrap;align=right;verticalAlign=bottom;" connectable="0" vertex="1" parent="6gCZVRVQFLJtjT2mg8cL-122">
          <mxGeometry x="1" relative="1" as="geometry" />
        </mxCell>
        <mxCell id="6gCZVRVQFLJtjT2mg8cL-124" value="" style="endArrow=none;html=1;rounded=0;entryX=1;entryY=0.25;entryDx=0;entryDy=0;exitX=0;exitY=0.5;exitDx=0;exitDy=0;" edge="1" parent="1" source="6gCZVRVQFLJtjT2mg8cL-121" target="6gCZVRVQFLJtjT2mg8cL-76">
          <mxGeometry relative="1" as="geometry">
            <mxPoint x="250" y="690" as="sourcePoint" />
            <mxPoint x="410" y="690" as="targetPoint" />
          </mxGeometry>
        </mxCell>
        <mxCell id="6gCZVRVQFLJtjT2mg8cL-125" value="N" style="resizable=0;html=1;whiteSpace=wrap;align=right;verticalAlign=bottom;" connectable="0" vertex="1" parent="6gCZVRVQFLJtjT2mg8cL-124">
          <mxGeometry x="1" relative="1" as="geometry" />
        </mxCell>
        <mxCell id="6gCZVRVQFLJtjT2mg8cL-126" value="CHITIETPHIEUNHAP" style="whiteSpace=wrap;html=1;align=center;" vertex="1" parent="1">
          <mxGeometry x="525" y="545" width="130" height="40" as="geometry" />
        </mxCell>
        <mxCell id="6gCZVRVQFLJtjT2mg8cL-127" value="Xuất hiện trong" style="shape=rhombus;perimeter=rhombusPerimeter;whiteSpace=wrap;html=1;align=center;" vertex="1" parent="1">
          <mxGeometry x="550" y="430" width="120" height="60" as="geometry" />
        </mxCell>
        <mxCell id="6gCZVRVQFLJtjT2mg8cL-129" value="Bao Gồm" style="shape=rhombus;perimeter=rhombusPerimeter;whiteSpace=wrap;html=1;align=center;" vertex="1" parent="1">
          <mxGeometry x="330" y="610" width="120" height="60" as="geometry" />
        </mxCell>
        <mxCell id="6gCZVRVQFLJtjT2mg8cL-130" value="" style="endArrow=none;html=1;rounded=0;entryX=1;entryY=1;entryDx=0;entryDy=0;exitX=0.5;exitY=0;exitDx=0;exitDy=0;" edge="1" parent="1" source="6gCZVRVQFLJtjT2mg8cL-127" target="6gCZVRVQFLJtjT2mg8cL-109">
          <mxGeometry relative="1" as="geometry">
            <mxPoint x="250" y="550" as="sourcePoint" />
            <mxPoint x="410" y="550" as="targetPoint" />
          </mxGeometry>
        </mxCell>
        <mxCell id="6gCZVRVQFLJtjT2mg8cL-131" value="1" style="resizable=0;html=1;whiteSpace=wrap;align=right;verticalAlign=bottom;" connectable="0" vertex="1" parent="6gCZVRVQFLJtjT2mg8cL-130">
          <mxGeometry x="1" relative="1" as="geometry" />
        </mxCell>
        <mxCell id="6gCZVRVQFLJtjT2mg8cL-132" value="" style="endArrow=none;html=1;rounded=0;entryX=0.5;entryY=0;entryDx=0;entryDy=0;exitX=0.417;exitY=1;exitDx=0;exitDy=0;exitPerimeter=0;" edge="1" parent="1" source="6gCZVRVQFLJtjT2mg8cL-127" target="6gCZVRVQFLJtjT2mg8cL-126">
          <mxGeometry relative="1" as="geometry">
            <mxPoint x="250" y="550" as="sourcePoint" />
            <mxPoint x="410" y="550" as="targetPoint" />
          </mxGeometry>
        </mxCell>
        <mxCell id="6gCZVRVQFLJtjT2mg8cL-133" value="N" style="resizable=0;html=1;whiteSpace=wrap;align=right;verticalAlign=bottom;" connectable="0" vertex="1" parent="6gCZVRVQFLJtjT2mg8cL-132">
          <mxGeometry x="1" relative="1" as="geometry" />
        </mxCell>
        <mxCell id="6gCZVRVQFLJtjT2mg8cL-134" value="" style="endArrow=none;html=1;rounded=0;entryX=0;entryY=1;entryDx=0;entryDy=0;exitX=0.93;exitY=0.571;exitDx=0;exitDy=0;exitPerimeter=0;" edge="1" parent="1" source="6gCZVRVQFLJtjT2mg8cL-129" target="6gCZVRVQFLJtjT2mg8cL-126">
          <mxGeometry relative="1" as="geometry">
            <mxPoint x="250" y="550" as="sourcePoint" />
            <mxPoint x="410" y="550" as="targetPoint" />
          </mxGeometry>
        </mxCell>
        <mxCell id="6gCZVRVQFLJtjT2mg8cL-135" value="N" style="resizable=0;html=1;whiteSpace=wrap;align=right;verticalAlign=bottom;" connectable="0" vertex="1" parent="6gCZVRVQFLJtjT2mg8cL-134">
          <mxGeometry x="1" relative="1" as="geometry" />
        </mxCell>
        <mxCell id="6gCZVRVQFLJtjT2mg8cL-136" value="" style="endArrow=none;html=1;rounded=0;entryX=1;entryY=1;entryDx=0;entryDy=0;" edge="1" parent="1" source="6gCZVRVQFLJtjT2mg8cL-129" target="6gCZVRVQFLJtjT2mg8cL-76">
          <mxGeometry relative="1" as="geometry">
            <mxPoint x="250" y="550" as="sourcePoint" />
            <mxPoint x="410" y="550" as="targetPoint" />
          </mxGeometry>
        </mxCell>
        <mxCell id="6gCZVRVQFLJtjT2mg8cL-137" value="1" style="resizable=0;html=1;whiteSpace=wrap;align=right;verticalAlign=bottom;" connectable="0" vertex="1" parent="6gCZVRVQFLJtjT2mg8cL-136">
          <mxGeometry x="1" relative="1" as="geometry" />
        </mxCell>
        <mxCell id="6gCZVRVQFLJtjT2mg8cL-138" style="edgeStyle=orthogonalEdgeStyle;rounded=0;orthogonalLoop=1;jettySize=auto;html=1;exitX=0.5;exitY=1;exitDx=0;exitDy=0;" edge="1" parent="1" source="6gCZVRVQFLJtjT2mg8cL-47" target="6gCZVRVQFLJtjT2mg8cL-47">
          <mxGeometry relative="1" as="geometry" />
        </mxCell>
        <mxCell id="6gCZVRVQFLJtjT2mg8cL-139" value="THONGKE" style="whiteSpace=wrap;html=1;align=center;" vertex="1" parent="1">
          <mxGeometry x="-440" y="820" width="100" height="40" as="geometry" />
        </mxCell>
        <mxCell id="6gCZVRVQFLJtjT2mg8cL-140" value="IDThongKe" style="ellipse;whiteSpace=wrap;html=1;align=center;fontStyle=4;" vertex="1" parent="1">
          <mxGeometry x="-600" y="730" width="100" height="40" as="geometry" />
        </mxCell>
        <mxCell id="6gCZVRVQFLJtjT2mg8cL-141" value="LoaiThongKe" style="ellipse;whiteSpace=wrap;html=1;align=center;" vertex="1" parent="1">
          <mxGeometry x="-610" y="800" width="100" height="40" as="geometry" />
        </mxCell>
        <mxCell id="6gCZVRVQFLJtjT2mg8cL-142" value="ThoiGian" style="ellipse;whiteSpace=wrap;html=1;align=center;" vertex="1" parent="1">
          <mxGeometry x="-590" y="880" width="100" height="40" as="geometry" />
        </mxCell>
        <mxCell id="6gCZVRVQFLJtjT2mg8cL-143" value="" style="endArrow=none;html=1;rounded=0;exitX=1;exitY=0.5;exitDx=0;exitDy=0;entryX=0;entryY=0;entryDx=0;entryDy=0;" edge="1" parent="1" source="6gCZVRVQFLJtjT2mg8cL-140" target="6gCZVRVQFLJtjT2mg8cL-139">
          <mxGeometry relative="1" as="geometry">
            <mxPoint x="-130" y="690" as="sourcePoint" />
            <mxPoint x="30" y="690" as="targetPoint" />
          </mxGeometry>
        </mxCell>
        <mxCell id="6gCZVRVQFLJtjT2mg8cL-144" value="" style="endArrow=none;html=1;rounded=0;exitX=1;exitY=0.5;exitDx=0;exitDy=0;entryX=0;entryY=1;entryDx=0;entryDy=0;" edge="1" parent="1" source="6gCZVRVQFLJtjT2mg8cL-141" target="6gCZVRVQFLJtjT2mg8cL-139">
          <mxGeometry relative="1" as="geometry">
            <mxPoint x="-130" y="690" as="sourcePoint" />
            <mxPoint x="30" y="690" as="targetPoint" />
          </mxGeometry>
        </mxCell>
        <mxCell id="6gCZVRVQFLJtjT2mg8cL-145" value="" style="endArrow=none;html=1;rounded=0;exitX=1;exitY=0.5;exitDx=0;exitDy=0;entryX=0.25;entryY=1;entryDx=0;entryDy=0;" edge="1" parent="1" source="6gCZVRVQFLJtjT2mg8cL-142" target="6gCZVRVQFLJtjT2mg8cL-139">
          <mxGeometry relative="1" as="geometry">
            <mxPoint x="-130" y="690" as="sourcePoint" />
            <mxPoint x="30" y="690" as="targetPoint" />
          </mxGeometry>
        </mxCell>
        <mxCell id="6gCZVRVQFLJtjT2mg8cL-146" value="Tổng Hơp" style="shape=rhombus;perimeter=rhombusPerimeter;whiteSpace=wrap;html=1;align=center;" vertex="1" parent="1">
          <mxGeometry x="-230" y="800" width="120" height="60" as="geometry" />
        </mxCell>
        <mxCell id="6gCZVRVQFLJtjT2mg8cL-147" value="Tổng Hơp" style="shape=rhombus;perimeter=rhombusPerimeter;whiteSpace=wrap;html=1;align=center;" vertex="1" parent="1">
          <mxGeometry x="-240" y="700" width="120" height="60" as="geometry" />
        </mxCell>
        <mxCell id="6gCZVRVQFLJtjT2mg8cL-148" value="" style="endArrow=none;html=1;rounded=0;entryX=0.75;entryY=0;entryDx=0;entryDy=0;exitX=0;exitY=0.5;exitDx=0;exitDy=0;" edge="1" parent="1" source="6gCZVRVQFLJtjT2mg8cL-147" target="6gCZVRVQFLJtjT2mg8cL-139">
          <mxGeometry relative="1" as="geometry">
            <mxPoint x="-80" y="710" as="sourcePoint" />
            <mxPoint x="80" y="710" as="targetPoint" />
          </mxGeometry>
        </mxCell>
        <mxCell id="6gCZVRVQFLJtjT2mg8cL-149" value="1" style="resizable=0;html=1;whiteSpace=wrap;align=right;verticalAlign=bottom;" connectable="0" vertex="1" parent="6gCZVRVQFLJtjT2mg8cL-148">
          <mxGeometry x="1" relative="1" as="geometry" />
        </mxCell>
        <mxCell id="6gCZVRVQFLJtjT2mg8cL-151" value="" style="endArrow=none;html=1;rounded=0;entryX=0.5;entryY=1;entryDx=0;entryDy=0;" edge="1" parent="1" source="6gCZVRVQFLJtjT2mg8cL-147" target="6gCZVRVQFLJtjT2mg8cL-98">
          <mxGeometry relative="1" as="geometry">
            <mxPoint x="-80" y="710" as="sourcePoint" />
            <mxPoint x="80" y="710" as="targetPoint" />
          </mxGeometry>
        </mxCell>
        <mxCell id="6gCZVRVQFLJtjT2mg8cL-152" value="N" style="resizable=0;html=1;whiteSpace=wrap;align=right;verticalAlign=bottom;" connectable="0" vertex="1" parent="6gCZVRVQFLJtjT2mg8cL-151">
          <mxGeometry x="1" relative="1" as="geometry">
            <mxPoint x="11" y="15" as="offset" />
          </mxGeometry>
        </mxCell>
        <mxCell id="6gCZVRVQFLJtjT2mg8cL-153" value="" style="endArrow=none;html=1;rounded=0;entryX=1;entryY=1;entryDx=0;entryDy=0;exitX=0;exitY=0.5;exitDx=0;exitDy=0;" edge="1" parent="1" source="6gCZVRVQFLJtjT2mg8cL-146" target="6gCZVRVQFLJtjT2mg8cL-139">
          <mxGeometry relative="1" as="geometry">
            <mxPoint x="-80" y="710" as="sourcePoint" />
            <mxPoint x="80" y="710" as="targetPoint" />
          </mxGeometry>
        </mxCell>
        <mxCell id="6gCZVRVQFLJtjT2mg8cL-154" value="1" style="resizable=0;html=1;whiteSpace=wrap;align=right;verticalAlign=bottom;" connectable="0" vertex="1" parent="6gCZVRVQFLJtjT2mg8cL-153">
          <mxGeometry x="1" relative="1" as="geometry" />
        </mxCell>
        <mxCell id="6gCZVRVQFLJtjT2mg8cL-155" value="" style="endArrow=none;html=1;rounded=0;exitX=0.892;exitY=0.414;exitDx=0;exitDy=0;exitPerimeter=0;entryX=0;entryY=0.75;entryDx=0;entryDy=0;" edge="1" parent="1" source="6gCZVRVQFLJtjT2mg8cL-146" target="6gCZVRVQFLJtjT2mg8cL-76">
          <mxGeometry relative="1" as="geometry">
            <mxPoint x="-80" y="710" as="sourcePoint" />
            <mxPoint x="80" y="710" as="targetPoint" />
          </mxGeometry>
        </mxCell>
        <mxCell id="6gCZVRVQFLJtjT2mg8cL-156" value="N" style="resizable=0;html=1;whiteSpace=wrap;align=right;verticalAlign=bottom;" connectable="0" vertex="1" parent="6gCZVRVQFLJtjT2mg8cL-155">
          <mxGeometry x="1" relative="1" as="geometry" />
        </mxCell>
        <mxCell id="6gCZVRVQFLJtjT2mg8cL-159" value="NHAXUATBAN" style="whiteSpace=wrap;html=1;align=center;" vertex="1" parent="1">
          <mxGeometry x="570" y="820" width="100" height="40" as="geometry" />
        </mxCell>
        <mxCell id="6gCZVRVQFLJtjT2mg8cL-160" value="IDNXB" style="ellipse;whiteSpace=wrap;html=1;align=center;fontStyle=4;" vertex="1" parent="1">
          <mxGeometry x="500" y="880" width="100" height="40" as="geometry" />
        </mxCell>
        <mxCell id="6gCZVRVQFLJtjT2mg8cL-161" value="TenNXB" style="ellipse;whiteSpace=wrap;html=1;align=center;" vertex="1" parent="1">
          <mxGeometry x="630" y="870" width="100" height="40" as="geometry" />
        </mxCell>
        <mxCell id="6gCZVRVQFLJtjT2mg8cL-162" value="" style="endArrow=none;html=1;rounded=0;exitX=0.5;exitY=0;exitDx=0;exitDy=0;entryX=0.5;entryY=1;entryDx=0;entryDy=0;" edge="1" parent="1" source="6gCZVRVQFLJtjT2mg8cL-160" target="6gCZVRVQFLJtjT2mg8cL-159">
          <mxGeometry relative="1" as="geometry">
            <mxPoint x="340" y="850" as="sourcePoint" />
            <mxPoint x="500" y="850" as="targetPoint" />
          </mxGeometry>
        </mxCell>
        <mxCell id="6gCZVRVQFLJtjT2mg8cL-163" value="" style="endArrow=none;html=1;rounded=0;exitX=0.75;exitY=1;exitDx=0;exitDy=0;entryX=0.5;entryY=0;entryDx=0;entryDy=0;" edge="1" parent="1" source="6gCZVRVQFLJtjT2mg8cL-159" target="6gCZVRVQFLJtjT2mg8cL-161">
          <mxGeometry relative="1" as="geometry">
            <mxPoint x="340" y="850" as="sourcePoint" />
            <mxPoint x="500" y="850" as="targetPoint" />
          </mxGeometry>
        </mxCell>
        <mxCell id="6gCZVRVQFLJtjT2mg8cL-164" value="Cung Cấp" style="shape=rhombus;perimeter=rhombusPerimeter;whiteSpace=wrap;html=1;align=center;" vertex="1" parent="1">
          <mxGeometry x="120" y="850" width="120" height="60" as="geometry" />
        </mxCell>
        <mxCell id="6gCZVRVQFLJtjT2mg8cL-165" value="" style="endArrow=none;html=1;rounded=0;exitX=1;exitY=0.5;exitDx=0;exitDy=0;entryX=0;entryY=0.5;entryDx=0;entryDy=0;" edge="1" parent="1" source="6gCZVRVQFLJtjT2mg8cL-164" target="6gCZVRVQFLJtjT2mg8cL-159">
          <mxGeometry relative="1" as="geometry">
            <mxPoint x="480" y="850" as="sourcePoint" />
            <mxPoint x="320" y="870" as="targetPoint" />
          </mxGeometry>
        </mxCell>
        <mxCell id="6gCZVRVQFLJtjT2mg8cL-166" value="1" style="resizable=0;html=1;whiteSpace=wrap;align=right;verticalAlign=bottom;" connectable="0" vertex="1" parent="6gCZVRVQFLJtjT2mg8cL-165">
          <mxGeometry x="1" relative="1" as="geometry" />
        </mxCell>
        <mxCell id="6gCZVRVQFLJtjT2mg8cL-167" value="" style="endArrow=none;html=1;rounded=0;exitX=0;exitY=0.5;exitDx=0;exitDy=0;entryX=0.5;entryY=1;entryDx=0;entryDy=0;" edge="1" parent="1" source="6gCZVRVQFLJtjT2mg8cL-164" target="6gCZVRVQFLJtjT2mg8cL-76">
          <mxGeometry relative="1" as="geometry">
            <mxPoint x="480" y="850" as="sourcePoint" />
            <mxPoint x="10" y="870" as="targetPoint" />
          </mxGeometry>
        </mxCell>
        <mxCell id="6gCZVRVQFLJtjT2mg8cL-168" value="N" style="resizable=0;html=1;whiteSpace=wrap;align=right;verticalAlign=bottom;" connectable="0" vertex="1" parent="6gCZVRVQFLJtjT2mg8cL-167">
          <mxGeometry x="1" relative="1" as="geometry">
            <mxPoint x="10" y="20" as="offset" />
          </mxGeometry>
        </mxCell>
        <mxCell id="6gCZVRVQFLJtjT2mg8cL-175" value="DOCGIA" style="whiteSpace=wrap;html=1;align=center;" vertex="1" parent="1">
          <mxGeometry x="510" y="1080" width="100" height="40" as="geometry" />
        </mxCell>
        <mxCell id="6gCZVRVQFLJtjT2mg8cL-176" value="IDDocGia" style="ellipse;whiteSpace=wrap;html=1;align=center;fontStyle=4;" vertex="1" parent="1">
          <mxGeometry x="750" y="1040" width="100" height="40" as="geometry" />
        </mxCell>
        <mxCell id="6gCZVRVQFLJtjT2mg8cL-177" value="TenDG" style="ellipse;whiteSpace=wrap;html=1;align=center;" vertex="1" parent="1">
          <mxGeometry x="740" y="1110" width="100" height="40" as="geometry" />
        </mxCell>
        <mxCell id="6gCZVRVQFLJtjT2mg8cL-178" value="" style="endArrow=none;html=1;rounded=0;exitX=1;exitY=0.75;exitDx=0;exitDy=0;entryX=0;entryY=0.5;entryDx=0;entryDy=0;" edge="1" parent="1" source="6gCZVRVQFLJtjT2mg8cL-175" target="6gCZVRVQFLJtjT2mg8cL-176">
          <mxGeometry relative="1" as="geometry">
            <mxPoint x="730" y="960" as="sourcePoint" />
            <mxPoint x="890" y="960" as="targetPoint" />
          </mxGeometry>
        </mxCell>
        <mxCell id="6gCZVRVQFLJtjT2mg8cL-179" value="" style="endArrow=none;html=1;rounded=0;entryX=0;entryY=0.5;entryDx=0;entryDy=0;exitX=1;exitY=1;exitDx=0;exitDy=0;" edge="1" parent="1" source="6gCZVRVQFLJtjT2mg8cL-175" target="6gCZVRVQFLJtjT2mg8cL-177">
          <mxGeometry relative="1" as="geometry">
            <mxPoint x="540" y="1080" as="sourcePoint" />
            <mxPoint x="700" y="1080" as="targetPoint" />
          </mxGeometry>
        </mxCell>
        <mxCell id="6gCZVRVQFLJtjT2mg8cL-180" value="Mượn" style="shape=rhombus;perimeter=rhombusPerimeter;whiteSpace=wrap;html=1;align=center;" vertex="1" parent="1">
          <mxGeometry x="330" y="910" width="120" height="60" as="geometry" />
        </mxCell>
        <mxCell id="6gCZVRVQFLJtjT2mg8cL-181" value="" style="endArrow=none;html=1;rounded=0;exitX=0.5;exitY=0;exitDx=0;exitDy=0;entryX=0.75;entryY=1;entryDx=0;entryDy=0;" edge="1" parent="1" source="6gCZVRVQFLJtjT2mg8cL-180" target="6gCZVRVQFLJtjT2mg8cL-98">
          <mxGeometry relative="1" as="geometry">
            <mxPoint x="304" y="889.29" as="sourcePoint" />
            <mxPoint x="40" y="670" as="targetPoint" />
          </mxGeometry>
        </mxCell>
        <mxCell id="6gCZVRVQFLJtjT2mg8cL-182" value="N" style="resizable=0;html=1;whiteSpace=wrap;align=right;verticalAlign=bottom;" connectable="0" vertex="1" parent="6gCZVRVQFLJtjT2mg8cL-181">
          <mxGeometry x="1" relative="1" as="geometry">
            <mxPoint x="10" y="30" as="offset" />
          </mxGeometry>
        </mxCell>
        <mxCell id="6gCZVRVQFLJtjT2mg8cL-183" value="" style="endArrow=none;html=1;rounded=0;exitX=1;exitY=1;exitDx=0;exitDy=0;entryX=0;entryY=0;entryDx=0;entryDy=0;" edge="1" parent="1" source="6gCZVRVQFLJtjT2mg8cL-180" target="6gCZVRVQFLJtjT2mg8cL-175">
          <mxGeometry relative="1" as="geometry">
            <mxPoint x="460" y="980" as="sourcePoint" />
            <mxPoint x="620" y="980" as="targetPoint" />
          </mxGeometry>
        </mxCell>
        <mxCell id="6gCZVRVQFLJtjT2mg8cL-184" value="1" style="resizable=0;html=1;whiteSpace=wrap;align=right;verticalAlign=bottom;" connectable="0" vertex="1" parent="6gCZVRVQFLJtjT2mg8cL-183">
          <mxGeometry x="1" relative="1" as="geometry">
            <mxPoint y="-10" as="offset" />
          </mxGeometry>
        </mxCell>
        <mxCell id="6gCZVRVQFLJtjT2mg8cL-185" value="LYLICH" style="whiteSpace=wrap;html=1;align=center;" vertex="1" parent="1">
          <mxGeometry x="980" y="720" width="100" height="40" as="geometry" />
        </mxCell>
        <mxCell id="6gCZVRVQFLJtjT2mg8cL-186" value="IDLyLich" style="ellipse;whiteSpace=wrap;html=1;align=center;fontStyle=4;" vertex="1" parent="1">
          <mxGeometry x="1110" y="640" width="100" height="40" as="geometry" />
        </mxCell>
        <mxCell id="6gCZVRVQFLJtjT2mg8cL-187" value="Ten" style="ellipse;whiteSpace=wrap;html=1;align=center;" vertex="1" parent="1">
          <mxGeometry x="1141" y="700" width="100" height="40" as="geometry" />
        </mxCell>
        <mxCell id="6gCZVRVQFLJtjT2mg8cL-188" value="DiaChi" style="ellipse;whiteSpace=wrap;html=1;align=center;" vertex="1" parent="1">
          <mxGeometry x="1170" y="760" width="100" height="40" as="geometry" />
        </mxCell>
        <mxCell id="6gCZVRVQFLJtjT2mg8cL-189" value="SDT" style="ellipse;whiteSpace=wrap;html=1;align=center;" vertex="1" parent="1">
          <mxGeometry x="1170" y="820" width="100" height="40" as="geometry" />
        </mxCell>
        <mxCell id="6gCZVRVQFLJtjT2mg8cL-190" value="GioiTinh" style="ellipse;whiteSpace=wrap;html=1;align=center;" vertex="1" parent="1">
          <mxGeometry x="1090" y="870" width="100" height="40" as="geometry" />
        </mxCell>
        <mxCell id="6gCZVRVQFLJtjT2mg8cL-191" value="VaiTro" style="ellipse;whiteSpace=wrap;html=1;align=center;" vertex="1" parent="1">
          <mxGeometry x="1050" y="920" width="100" height="40" as="geometry" />
        </mxCell>
        <mxCell id="6gCZVRVQFLJtjT2mg8cL-193" value="" style="endArrow=none;html=1;rounded=0;exitX=1;exitY=0;exitDx=0;exitDy=0;entryX=0.059;entryY=0.821;entryDx=0;entryDy=0;entryPerimeter=0;" edge="1" parent="1" source="6gCZVRVQFLJtjT2mg8cL-185" target="6gCZVRVQFLJtjT2mg8cL-186">
          <mxGeometry relative="1" as="geometry">
            <mxPoint x="1050" y="850" as="sourcePoint" />
            <mxPoint x="1210" y="850" as="targetPoint" />
          </mxGeometry>
        </mxCell>
        <mxCell id="6gCZVRVQFLJtjT2mg8cL-194" value="" style="endArrow=none;html=1;rounded=0;exitX=1;exitY=0;exitDx=0;exitDy=0;entryX=0;entryY=0.5;entryDx=0;entryDy=0;" edge="1" parent="1" source="6gCZVRVQFLJtjT2mg8cL-185" target="6gCZVRVQFLJtjT2mg8cL-187">
          <mxGeometry relative="1" as="geometry">
            <mxPoint x="1050" y="850" as="sourcePoint" />
            <mxPoint x="1210" y="850" as="targetPoint" />
          </mxGeometry>
        </mxCell>
        <mxCell id="6gCZVRVQFLJtjT2mg8cL-195" value="" style="endArrow=none;html=1;rounded=0;exitX=1;exitY=0.5;exitDx=0;exitDy=0;entryX=0;entryY=0.5;entryDx=0;entryDy=0;" edge="1" parent="1" source="6gCZVRVQFLJtjT2mg8cL-185" target="6gCZVRVQFLJtjT2mg8cL-188">
          <mxGeometry relative="1" as="geometry">
            <mxPoint x="1050" y="850" as="sourcePoint" />
            <mxPoint x="1210" y="850" as="targetPoint" />
          </mxGeometry>
        </mxCell>
        <mxCell id="6gCZVRVQFLJtjT2mg8cL-196" value="" style="endArrow=none;html=1;rounded=0;exitX=0.901;exitY=0.993;exitDx=0;exitDy=0;exitPerimeter=0;entryX=0;entryY=0.5;entryDx=0;entryDy=0;" edge="1" parent="1" source="6gCZVRVQFLJtjT2mg8cL-185" target="6gCZVRVQFLJtjT2mg8cL-189">
          <mxGeometry relative="1" as="geometry">
            <mxPoint x="1050" y="850" as="sourcePoint" />
            <mxPoint x="1210" y="850" as="targetPoint" />
          </mxGeometry>
        </mxCell>
        <mxCell id="6gCZVRVQFLJtjT2mg8cL-197" value="" style="endArrow=none;html=1;rounded=0;exitX=0.75;exitY=1;exitDx=0;exitDy=0;entryX=0;entryY=0;entryDx=0;entryDy=0;" edge="1" parent="1" source="6gCZVRVQFLJtjT2mg8cL-185" target="6gCZVRVQFLJtjT2mg8cL-191">
          <mxGeometry relative="1" as="geometry">
            <mxPoint x="1050" y="850" as="sourcePoint" />
            <mxPoint x="1210" y="850" as="targetPoint" />
          </mxGeometry>
        </mxCell>
        <mxCell id="6gCZVRVQFLJtjT2mg8cL-198" value="" style="endArrow=none;html=1;rounded=0;exitX=0.75;exitY=1;exitDx=0;exitDy=0;entryX=0.384;entryY=0.014;entryDx=0;entryDy=0;entryPerimeter=0;" edge="1" parent="1" source="6gCZVRVQFLJtjT2mg8cL-185" target="6gCZVRVQFLJtjT2mg8cL-190">
          <mxGeometry relative="1" as="geometry">
            <mxPoint x="1050" y="850" as="sourcePoint" />
            <mxPoint x="1210" y="850" as="targetPoint" />
          </mxGeometry>
        </mxCell>
        <mxCell id="6gCZVRVQFLJtjT2mg8cL-199" value="Thuộc về" style="shape=rhombus;perimeter=rhombusPerimeter;whiteSpace=wrap;html=1;align=center;" vertex="1" parent="1">
          <mxGeometry x="820" y="850" width="120" height="60" as="geometry" />
        </mxCell>
        <mxCell id="6gCZVRVQFLJtjT2mg8cL-200" value="Thuộc về" style="shape=rhombus;perimeter=rhombusPerimeter;whiteSpace=wrap;html=1;align=center;" vertex="1" parent="1">
          <mxGeometry x="800" y="750" width="120" height="60" as="geometry" />
        </mxCell>
        <mxCell id="6gCZVRVQFLJtjT2mg8cL-201" value="Thuộc về" style="shape=rhombus;perimeter=rhombusPerimeter;whiteSpace=wrap;html=1;align=center;" vertex="1" parent="1">
          <mxGeometry x="800" y="665" width="120" height="60" as="geometry" />
        </mxCell>
        <mxCell id="6gCZVRVQFLJtjT2mg8cL-202" value="" style="endArrow=none;html=1;rounded=0;exitX=1;exitY=0;exitDx=0;exitDy=0;entryX=0.25;entryY=1;entryDx=0;entryDy=0;" edge="1" parent="1" source="6gCZVRVQFLJtjT2mg8cL-199" target="6gCZVRVQFLJtjT2mg8cL-185">
          <mxGeometry relative="1" as="geometry">
            <mxPoint x="1050" y="850" as="sourcePoint" />
            <mxPoint x="1210" y="850" as="targetPoint" />
          </mxGeometry>
        </mxCell>
        <mxCell id="6gCZVRVQFLJtjT2mg8cL-203" value="1" style="resizable=0;html=1;whiteSpace=wrap;align=right;verticalAlign=bottom;" connectable="0" vertex="1" parent="6gCZVRVQFLJtjT2mg8cL-202">
          <mxGeometry x="1" relative="1" as="geometry">
            <mxPoint y="20" as="offset" />
          </mxGeometry>
        </mxCell>
        <mxCell id="6gCZVRVQFLJtjT2mg8cL-204" value="" style="endArrow=none;html=1;rounded=0;entryX=1;entryY=0;entryDx=0;entryDy=0;exitX=0;exitY=1;exitDx=0;exitDy=0;" edge="1" parent="1" source="6gCZVRVQFLJtjT2mg8cL-199" target="6gCZVRVQFLJtjT2mg8cL-175">
          <mxGeometry relative="1" as="geometry">
            <mxPoint x="1050" y="850" as="sourcePoint" />
            <mxPoint x="1210" y="850" as="targetPoint" />
          </mxGeometry>
        </mxCell>
        <mxCell id="6gCZVRVQFLJtjT2mg8cL-205" value="1" style="resizable=0;html=1;whiteSpace=wrap;align=right;verticalAlign=bottom;" connectable="0" vertex="1" parent="6gCZVRVQFLJtjT2mg8cL-204">
          <mxGeometry x="1" relative="1" as="geometry" />
        </mxCell>
        <mxCell id="6gCZVRVQFLJtjT2mg8cL-206" value="" style="endArrow=none;html=1;rounded=0;exitX=1;exitY=0.5;exitDx=0;exitDy=0;entryX=0;entryY=1;entryDx=0;entryDy=0;" edge="1" parent="1" source="6gCZVRVQFLJtjT2mg8cL-200" target="6gCZVRVQFLJtjT2mg8cL-185">
          <mxGeometry relative="1" as="geometry">
            <mxPoint x="1050" y="850" as="sourcePoint" />
            <mxPoint x="1210" y="850" as="targetPoint" />
          </mxGeometry>
        </mxCell>
        <mxCell id="6gCZVRVQFLJtjT2mg8cL-207" value="1" style="resizable=0;html=1;whiteSpace=wrap;align=right;verticalAlign=bottom;" connectable="0" vertex="1" parent="6gCZVRVQFLJtjT2mg8cL-206">
          <mxGeometry x="1" relative="1" as="geometry" />
        </mxCell>
        <mxCell id="6gCZVRVQFLJtjT2mg8cL-208" value="" style="endArrow=none;html=1;rounded=0;exitX=1;exitY=0.5;exitDx=0;exitDy=0;entryX=0;entryY=0;entryDx=0;entryDy=0;" edge="1" parent="1" source="6gCZVRVQFLJtjT2mg8cL-201" target="6gCZVRVQFLJtjT2mg8cL-185">
          <mxGeometry relative="1" as="geometry">
            <mxPoint x="1050" y="850" as="sourcePoint" />
            <mxPoint x="1210" y="850" as="targetPoint" />
          </mxGeometry>
        </mxCell>
        <mxCell id="6gCZVRVQFLJtjT2mg8cL-209" value="1" style="resizable=0;html=1;whiteSpace=wrap;align=right;verticalAlign=bottom;" connectable="0" vertex="1" parent="6gCZVRVQFLJtjT2mg8cL-208">
          <mxGeometry x="1" relative="1" as="geometry" />
        </mxCell>
        <mxCell id="6gCZVRVQFLJtjT2mg8cL-210" value="" style="endArrow=none;html=1;rounded=0;exitX=0;exitY=0.5;exitDx=0;exitDy=0;entryX=1;entryY=0;entryDx=0;entryDy=0;" edge="1" parent="1" source="6gCZVRVQFLJtjT2mg8cL-200" target="6gCZVRVQFLJtjT2mg8cL-159">
          <mxGeometry relative="1" as="geometry">
            <mxPoint x="1050" y="850" as="sourcePoint" />
            <mxPoint x="1210" y="850" as="targetPoint" />
          </mxGeometry>
        </mxCell>
        <mxCell id="6gCZVRVQFLJtjT2mg8cL-211" value="1" style="resizable=0;html=1;whiteSpace=wrap;align=right;verticalAlign=bottom;" connectable="0" vertex="1" parent="6gCZVRVQFLJtjT2mg8cL-210">
          <mxGeometry x="1" relative="1" as="geometry" />
        </mxCell>
        <mxCell id="6gCZVRVQFLJtjT2mg8cL-212" value="" style="endArrow=none;html=1;rounded=0;exitX=0;exitY=0.5;exitDx=0;exitDy=0;entryX=1;entryY=0.75;entryDx=0;entryDy=0;" edge="1" parent="1" source="6gCZVRVQFLJtjT2mg8cL-201" target="6gCZVRVQFLJtjT2mg8cL-116">
          <mxGeometry relative="1" as="geometry">
            <mxPoint x="1050" y="850" as="sourcePoint" />
            <mxPoint x="1210" y="850" as="targetPoint" />
          </mxGeometry>
        </mxCell>
        <mxCell id="6gCZVRVQFLJtjT2mg8cL-213" value="1" style="resizable=0;html=1;whiteSpace=wrap;align=right;verticalAlign=bottom;" connectable="0" vertex="1" parent="6gCZVRVQFLJtjT2mg8cL-212">
          <mxGeometry x="1" relative="1" as="geometry">
            <mxPoint x="20" y="-5" as="offset" />
          </mxGeometry>
        </mxCell>
        <mxCell id="6gCZVRVQFLJtjT2mg8cL-214" value="THETHUVIEN" style="whiteSpace=wrap;html=1;align=center;" vertex="1" parent="1">
          <mxGeometry x="-50" y="1050" width="100" height="40" as="geometry" />
        </mxCell>
        <mxCell id="6gCZVRVQFLJtjT2mg8cL-216" value="IDCard" style="ellipse;whiteSpace=wrap;html=1;align=center;fontStyle=4;" vertex="1" parent="1">
          <mxGeometry x="-160" y="950" width="100" height="40" as="geometry" />
        </mxCell>
        <mxCell id="6gCZVRVQFLJtjT2mg8cL-218" value="DoiTuong" style="ellipse;whiteSpace=wrap;html=1;align=center;" vertex="1" parent="1">
          <mxGeometry x="-50" y="940" width="100" height="40" as="geometry" />
        </mxCell>
        <mxCell id="6gCZVRVQFLJtjT2mg8cL-219" value="NgayTao" style="ellipse;whiteSpace=wrap;html=1;align=center;" vertex="1" parent="1">
          <mxGeometry x="-240" y="1000" width="100" height="40" as="geometry" />
        </mxCell>
        <mxCell id="6gCZVRVQFLJtjT2mg8cL-220" value="NgayHetHan" style="ellipse;whiteSpace=wrap;html=1;align=center;" vertex="1" parent="1">
          <mxGeometry x="70" y="960" width="100" height="40" as="geometry" />
        </mxCell>
        <mxCell id="6gCZVRVQFLJtjT2mg8cL-221" value="TrangThai" style="ellipse;whiteSpace=wrap;html=1;align=center;" vertex="1" parent="1">
          <mxGeometry x="140" y="1000" width="100" height="40" as="geometry" />
        </mxCell>
        <mxCell id="6gCZVRVQFLJtjT2mg8cL-222" style="edgeStyle=orthogonalEdgeStyle;rounded=0;orthogonalLoop=1;jettySize=auto;html=1;exitX=0.5;exitY=1;exitDx=0;exitDy=0;" edge="1" parent="1" source="6gCZVRVQFLJtjT2mg8cL-220" target="6gCZVRVQFLJtjT2mg8cL-220">
          <mxGeometry relative="1" as="geometry" />
        </mxCell>
        <mxCell id="6gCZVRVQFLJtjT2mg8cL-224" value="" style="endArrow=none;html=1;rounded=0;exitX=1;exitY=0.5;exitDx=0;exitDy=0;entryX=0;entryY=0;entryDx=0;entryDy=0;" edge="1" parent="1" source="6gCZVRVQFLJtjT2mg8cL-219" target="6gCZVRVQFLJtjT2mg8cL-214">
          <mxGeometry relative="1" as="geometry">
            <mxPoint x="-120" y="1019.29" as="sourcePoint" />
            <mxPoint x="40" y="1019.29" as="targetPoint" />
          </mxGeometry>
        </mxCell>
        <mxCell id="6gCZVRVQFLJtjT2mg8cL-225" value="" style="endArrow=none;html=1;rounded=0;exitX=1;exitY=1;exitDx=0;exitDy=0;entryX=0;entryY=0;entryDx=0;entryDy=0;" edge="1" parent="1" source="6gCZVRVQFLJtjT2mg8cL-216" target="6gCZVRVQFLJtjT2mg8cL-214">
          <mxGeometry relative="1" as="geometry">
            <mxPoint x="-30" y="1009.29" as="sourcePoint" />
            <mxPoint x="130" y="1009.29" as="targetPoint" />
          </mxGeometry>
        </mxCell>
        <mxCell id="6gCZVRVQFLJtjT2mg8cL-226" value="" style="endArrow=none;html=1;rounded=0;exitX=0.4;exitY=1;exitDx=0;exitDy=0;exitPerimeter=0;entryX=0.25;entryY=0;entryDx=0;entryDy=0;" edge="1" parent="1" source="6gCZVRVQFLJtjT2mg8cL-218" target="6gCZVRVQFLJtjT2mg8cL-214">
          <mxGeometry relative="1" as="geometry">
            <mxPoint x="90" y="1068.57" as="sourcePoint" />
            <mxPoint x="250" y="1068.57" as="targetPoint" />
          </mxGeometry>
        </mxCell>
        <mxCell id="6gCZVRVQFLJtjT2mg8cL-227" value="" style="endArrow=none;html=1;rounded=0;exitX=0;exitY=1;exitDx=0;exitDy=0;" edge="1" parent="1" source="6gCZVRVQFLJtjT2mg8cL-220">
          <mxGeometry relative="1" as="geometry">
            <mxPoint x="250" y="850" as="sourcePoint" />
            <mxPoint y="1050" as="targetPoint" />
          </mxGeometry>
        </mxCell>
        <mxCell id="6gCZVRVQFLJtjT2mg8cL-228" value="" style="endArrow=none;html=1;rounded=0;exitX=1;exitY=0.25;exitDx=0;exitDy=0;entryX=0;entryY=0.5;entryDx=0;entryDy=0;" edge="1" parent="1" source="6gCZVRVQFLJtjT2mg8cL-214" target="6gCZVRVQFLJtjT2mg8cL-221">
          <mxGeometry relative="1" as="geometry">
            <mxPoint x="80" y="1069.29" as="sourcePoint" />
            <mxPoint x="240" y="1069.29" as="targetPoint" />
          </mxGeometry>
        </mxCell>
        <mxCell id="6gCZVRVQFLJtjT2mg8cL-229" value="Sở Hữu" style="shape=rhombus;perimeter=rhombusPerimeter;whiteSpace=wrap;html=1;align=center;" vertex="1" parent="1">
          <mxGeometry x="260" y="1050" width="120" height="60" as="geometry" />
        </mxCell>
        <mxCell id="6gCZVRVQFLJtjT2mg8cL-230" value="" style="endArrow=none;html=1;rounded=0;entryX=0;entryY=1;entryDx=0;entryDy=0;exitX=1;exitY=0.5;exitDx=0;exitDy=0;" edge="1" parent="1" source="6gCZVRVQFLJtjT2mg8cL-229" target="6gCZVRVQFLJtjT2mg8cL-175">
          <mxGeometry relative="1" as="geometry">
            <mxPoint x="250" y="990" as="sourcePoint" />
            <mxPoint x="410" y="990" as="targetPoint" />
          </mxGeometry>
        </mxCell>
        <mxCell id="6gCZVRVQFLJtjT2mg8cL-231" value="1" style="resizable=0;html=1;whiteSpace=wrap;align=right;verticalAlign=bottom;" connectable="0" vertex="1" parent="6gCZVRVQFLJtjT2mg8cL-230">
          <mxGeometry x="1" relative="1" as="geometry" />
        </mxCell>
        <mxCell id="6gCZVRVQFLJtjT2mg8cL-232" value="" style="endArrow=none;html=1;rounded=0;entryX=1;entryY=1;entryDx=0;entryDy=0;exitX=0;exitY=0.5;exitDx=0;exitDy=0;" edge="1" parent="1" source="6gCZVRVQFLJtjT2mg8cL-229" target="6gCZVRVQFLJtjT2mg8cL-214">
          <mxGeometry relative="1" as="geometry">
            <mxPoint x="250" y="990" as="sourcePoint" />
            <mxPoint x="410" y="990" as="targetPoint" />
          </mxGeometry>
        </mxCell>
        <mxCell id="6gCZVRVQFLJtjT2mg8cL-233" value="1" style="resizable=0;html=1;whiteSpace=wrap;align=right;verticalAlign=bottom;" connectable="0" vertex="1" parent="6gCZVRVQFLJtjT2mg8cL-232">
          <mxGeometry x="1" relative="1" as="geometry">
            <mxPoint x="20" as="offset" />
          </mxGeometry>
        </mxCell>
        <mxCell id="6gCZVRVQFLJtjT2mg8cL-234" value="TAIKHOAN" style="whiteSpace=wrap;html=1;align=center;" vertex="1" parent="1">
          <mxGeometry x="-70" y="1200" width="100" height="40" as="geometry" />
        </mxCell>
        <mxCell id="6gCZVRVQFLJtjT2mg8cL-235" value="UserName" style="ellipse;whiteSpace=wrap;html=1;align=center;fontStyle=4;" vertex="1" parent="1">
          <mxGeometry x="-160" y="1100" width="100" height="40" as="geometry" />
        </mxCell>
        <mxCell id="6gCZVRVQFLJtjT2mg8cL-236" value="Password" style="ellipse;whiteSpace=wrap;html=1;align=center;" vertex="1" parent="1">
          <mxGeometry x="-40" y="1120" width="100" height="40" as="geometry" />
        </mxCell>
        <mxCell id="6gCZVRVQFLJtjT2mg8cL-237" value="LoaiTK" style="ellipse;whiteSpace=wrap;html=1;align=center;" vertex="1" parent="1">
          <mxGeometry x="60" y="1129" width="100" height="40" as="geometry" />
        </mxCell>
        <mxCell id="6gCZVRVQFLJtjT2mg8cL-238" value="" style="endArrow=none;html=1;rounded=0;exitX=1;exitY=1;exitDx=0;exitDy=0;entryX=0;entryY=0;entryDx=0;entryDy=0;" edge="1" parent="1" source="6gCZVRVQFLJtjT2mg8cL-235" target="6gCZVRVQFLJtjT2mg8cL-234">
          <mxGeometry relative="1" as="geometry">
            <mxPoint x="100" y="1240" as="sourcePoint" />
            <mxPoint x="260" y="1240" as="targetPoint" />
          </mxGeometry>
        </mxCell>
        <mxCell id="6gCZVRVQFLJtjT2mg8cL-239" value="" style="endArrow=none;html=1;rounded=0;exitX=0.407;exitY=-0.064;exitDx=0;exitDy=0;exitPerimeter=0;entryX=0.5;entryY=1;entryDx=0;entryDy=0;" edge="1" parent="1" source="6gCZVRVQFLJtjT2mg8cL-234" target="6gCZVRVQFLJtjT2mg8cL-236">
          <mxGeometry relative="1" as="geometry">
            <mxPoint x="130" y="1219.29" as="sourcePoint" />
            <mxPoint x="290" y="1219" as="targetPoint" />
          </mxGeometry>
        </mxCell>
        <mxCell id="6gCZVRVQFLJtjT2mg8cL-240" value="" style="endArrow=none;html=1;rounded=0;exitX=1;exitY=0;exitDx=0;exitDy=0;entryX=0;entryY=1;entryDx=0;entryDy=0;" edge="1" parent="1" source="6gCZVRVQFLJtjT2mg8cL-234" target="6gCZVRVQFLJtjT2mg8cL-237">
          <mxGeometry relative="1" as="geometry">
            <mxPoint x="80" y="1219.29" as="sourcePoint" />
            <mxPoint x="240" y="1219.29" as="targetPoint" />
          </mxGeometry>
        </mxCell>
        <mxCell id="6gCZVRVQFLJtjT2mg8cL-241" value="Có" style="shape=rhombus;perimeter=rhombusPerimeter;whiteSpace=wrap;html=1;align=center;" vertex="1" parent="1">
          <mxGeometry x="240" y="1140" width="120" height="60" as="geometry" />
        </mxCell>
        <mxCell id="6gCZVRVQFLJtjT2mg8cL-242" value="" style="endArrow=none;html=1;rounded=0;entryX=0.25;entryY=1;entryDx=0;entryDy=0;exitX=1;exitY=0;exitDx=0;exitDy=0;" edge="1" parent="1" source="6gCZVRVQFLJtjT2mg8cL-241" target="6gCZVRVQFLJtjT2mg8cL-175">
          <mxGeometry relative="1" as="geometry">
            <mxPoint x="400" y="1148.29" as="sourcePoint" />
            <mxPoint x="560" y="1148.29" as="targetPoint" />
          </mxGeometry>
        </mxCell>
        <mxCell id="6gCZVRVQFLJtjT2mg8cL-243" value="1" style="resizable=0;html=1;whiteSpace=wrap;align=right;verticalAlign=bottom;" connectable="0" vertex="1" parent="6gCZVRVQFLJtjT2mg8cL-242">
          <mxGeometry x="1" relative="1" as="geometry">
            <mxPoint x="-6" y="20" as="offset" />
          </mxGeometry>
        </mxCell>
        <mxCell id="6gCZVRVQFLJtjT2mg8cL-244" value="" style="endArrow=none;html=1;rounded=0;entryX=1;entryY=0.25;entryDx=0;entryDy=0;exitX=0;exitY=0.5;exitDx=0;exitDy=0;" edge="1" parent="1" source="6gCZVRVQFLJtjT2mg8cL-241" target="6gCZVRVQFLJtjT2mg8cL-234">
          <mxGeometry relative="1" as="geometry">
            <mxPoint x="130" y="1210" as="sourcePoint" />
            <mxPoint x="290" y="1210" as="targetPoint" />
          </mxGeometry>
        </mxCell>
        <mxCell id="6gCZVRVQFLJtjT2mg8cL-245" value="1" style="resizable=0;html=1;whiteSpace=wrap;align=right;verticalAlign=bottom;" connectable="0" vertex="1" parent="6gCZVRVQFLJtjT2mg8cL-244">
          <mxGeometry x="1" relative="1" as="geometry">
            <mxPoint x="31" as="offset" />
          </mxGeometry>
        </mxCell>
        <mxCell id="6gCZVRVQFLJtjT2mg8cL-246" value="VIPHAM" style="whiteSpace=wrap;html=1;align=center;" vertex="1" parent="1">
          <mxGeometry x="-90" y="1350" width="100" height="40" as="geometry" />
        </mxCell>
        <mxCell id="6gCZVRVQFLJtjT2mg8cL-248" value="IDViPham" style="ellipse;whiteSpace=wrap;html=1;align=center;fontStyle=4;" vertex="1" parent="1">
          <mxGeometry x="-130" y="1270" width="100" height="40" as="geometry" />
        </mxCell>
        <mxCell id="6gCZVRVQFLJtjT2mg8cL-249" value="NgayViPham" style="ellipse;whiteSpace=wrap;html=1;align=center;" vertex="1" parent="1">
          <mxGeometry y="1280" width="100" height="40" as="geometry" />
        </mxCell>
        <mxCell id="6gCZVRVQFLJtjT2mg8cL-251" value="" style="endArrow=none;html=1;rounded=0;exitX=0.736;exitY=0.964;exitDx=0;exitDy=0;exitPerimeter=0;entryX=0.5;entryY=0;entryDx=0;entryDy=0;" edge="1" parent="1" source="6gCZVRVQFLJtjT2mg8cL-248" target="6gCZVRVQFLJtjT2mg8cL-246">
          <mxGeometry relative="1" as="geometry">
            <mxPoint x="140" y="1330" as="sourcePoint" />
            <mxPoint x="300" y="1330" as="targetPoint" />
          </mxGeometry>
        </mxCell>
        <mxCell id="6gCZVRVQFLJtjT2mg8cL-252" value="" style="endArrow=none;html=1;rounded=0;exitX=0.5;exitY=0;exitDx=0;exitDy=0;entryX=0;entryY=1;entryDx=0;entryDy=0;" edge="1" parent="1" source="6gCZVRVQFLJtjT2mg8cL-246" target="6gCZVRVQFLJtjT2mg8cL-249">
          <mxGeometry relative="1" as="geometry">
            <mxPoint x="170" y="1320" as="sourcePoint" />
            <mxPoint x="330" y="1320" as="targetPoint" />
          </mxGeometry>
        </mxCell>
        <mxCell id="6gCZVRVQFLJtjT2mg8cL-254" value="Gây ra" style="shape=rhombus;perimeter=rhombusPerimeter;whiteSpace=wrap;html=1;align=center;" vertex="1" parent="1">
          <mxGeometry x="280" y="1260" width="120" height="60" as="geometry" />
        </mxCell>
        <mxCell id="6gCZVRVQFLJtjT2mg8cL-257" value="" style="endArrow=none;html=1;rounded=0;entryX=0.75;entryY=1;entryDx=0;entryDy=0;exitX=0.67;exitY=0.195;exitDx=0;exitDy=0;exitPerimeter=0;" edge="1" parent="1" source="6gCZVRVQFLJtjT2mg8cL-254" target="6gCZVRVQFLJtjT2mg8cL-175">
          <mxGeometry relative="1" as="geometry">
            <mxPoint x="430" y="1198.57" as="sourcePoint" />
            <mxPoint x="590" y="1198.57" as="targetPoint" />
          </mxGeometry>
        </mxCell>
        <mxCell id="6gCZVRVQFLJtjT2mg8cL-258" value="1" style="resizable=0;html=1;whiteSpace=wrap;align=right;verticalAlign=bottom;" connectable="0" vertex="1" parent="6gCZVRVQFLJtjT2mg8cL-257">
          <mxGeometry x="1" relative="1" as="geometry">
            <mxPoint x="5" y="20" as="offset" />
          </mxGeometry>
        </mxCell>
        <mxCell id="6gCZVRVQFLJtjT2mg8cL-259" value="" style="endArrow=none;html=1;rounded=0;entryX=1;entryY=0.5;entryDx=0;entryDy=0;exitX=0;exitY=0.5;exitDx=0;exitDy=0;" edge="1" parent="1" source="6gCZVRVQFLJtjT2mg8cL-254" target="6gCZVRVQFLJtjT2mg8cL-246">
          <mxGeometry relative="1" as="geometry">
            <mxPoint x="120" y="1369.29" as="sourcePoint" />
            <mxPoint x="280" y="1369.29" as="targetPoint" />
          </mxGeometry>
        </mxCell>
        <mxCell id="6gCZVRVQFLJtjT2mg8cL-260" value="N" style="resizable=0;html=1;whiteSpace=wrap;align=right;verticalAlign=bottom;" connectable="0" vertex="1" parent="6gCZVRVQFLJtjT2mg8cL-259">
          <mxGeometry x="1" relative="1" as="geometry">
            <mxPoint x="20" y="-10" as="offset" />
          </mxGeometry>
        </mxCell>
        <mxCell id="6gCZVRVQFLJtjT2mg8cL-262" value="Tổng Hợp" style="shape=rhombus;perimeter=rhombusPerimeter;whiteSpace=wrap;html=1;align=center;" vertex="1" parent="1">
          <mxGeometry x="-370" y="1110" width="120" height="60" as="geometry" />
        </mxCell>
        <mxCell id="6gCZVRVQFLJtjT2mg8cL-263" value="" style="endArrow=none;html=1;rounded=0;entryX=0.5;entryY=1;entryDx=0;entryDy=0;exitX=0.5;exitY=0;exitDx=0;exitDy=0;" edge="1" parent="1" source="6gCZVRVQFLJtjT2mg8cL-262" target="6gCZVRVQFLJtjT2mg8cL-139">
          <mxGeometry relative="1" as="geometry">
            <mxPoint x="-280" y="1140" as="sourcePoint" />
            <mxPoint x="-120" y="1140" as="targetPoint" />
          </mxGeometry>
        </mxCell>
        <mxCell id="6gCZVRVQFLJtjT2mg8cL-264" value="1" style="resizable=0;html=1;whiteSpace=wrap;align=right;verticalAlign=bottom;" connectable="0" vertex="1" parent="6gCZVRVQFLJtjT2mg8cL-263">
          <mxGeometry x="1" relative="1" as="geometry">
            <mxPoint y="20" as="offset" />
          </mxGeometry>
        </mxCell>
        <mxCell id="6gCZVRVQFLJtjT2mg8cL-265" value="" style="endArrow=none;html=1;rounded=0;entryX=0;entryY=0.75;entryDx=0;entryDy=0;exitX=0.5;exitY=1;exitDx=0;exitDy=0;" edge="1" parent="1" source="6gCZVRVQFLJtjT2mg8cL-262" target="6gCZVRVQFLJtjT2mg8cL-246">
          <mxGeometry relative="1" as="geometry">
            <mxPoint x="-280" y="1140" as="sourcePoint" />
            <mxPoint x="-120" y="1140" as="targetPoint" />
          </mxGeometry>
        </mxCell>
        <mxCell id="6gCZVRVQFLJtjT2mg8cL-266" value="N" style="resizable=0;html=1;whiteSpace=wrap;align=right;verticalAlign=bottom;" connectable="0" vertex="1" parent="6gCZVRVQFLJtjT2mg8cL-265">
          <mxGeometry x="1" relative="1" as="geometry">
            <mxPoint x="-10" y="10" as="offset" />
          </mxGeometry>
        </mxCell>
      </root>
    </mxGraphModel>
  </diagram>
</mxfile>
